<svg width="36" height="36" viewBox="0 0 36 36" fill="none" xmlns="http://www.w3.org/2000/svg">
<path d="M30.2727 7.22727V24.9545H22.0909C21.0982 24.9545 20.1655 25.2205 19.3636 25.6841V11.3182C19.3636 10.1877 19.8205 9.16773 20.5623 8.42591C21.3041 7.68409 22.3241 7.22727 23.4545 7.22727H30.2727ZM16.6364 25.6841C15.8345 25.2205 14.9018 24.9545 13.9091 24.9545H5.72727V7.22727H12.5455C13.6759 7.22727 14.6959 7.68409 15.4377 8.42591C16.1795 9.16773 16.6364 10.1877 16.6364 11.3182V25.6841ZM31.6364 4.5H23.4545C21.5727 4.5 19.8655 5.265 18.6327 6.49636C18.405 6.72409 18.1936 6.96818 18 7.22727C17.8064 6.96818 17.595 6.72409 17.3673 6.49636C16.1345 5.265 14.4273 4.5 12.5455 4.5H4.36364C3.61091 4.5 3 5.11091 3 5.86364V26.3182C3 27.0709 3.61091 27.6818 4.36364 27.6818H13.9091C14.6632 27.6818 15.3423 27.9859 15.8373 28.4809C16.3323 28.9759 16.6364 29.655 16.6364 30.4091C16.6364 31.1618 17.2473 31.7727 18 31.7727C18.7527 31.7727 19.3636 31.1618 19.3636 30.4091C19.3636 29.655 19.6677 28.9759 20.1627 28.4809C20.6577 27.9859 21.3368 27.6818 22.0909 27.6818H31.6364C32.3891 27.6818 33 27.0709 33 26.3182V5.86364C33 5.11091 32.3891 4.5 31.6364 4.5Z" fill="#3462CD"/>
</svg>
