<svg width="36" height="36" viewBox="0 0 36 36" fill="none" xmlns="http://www.w3.org/2000/svg">
<path d="M27.3974 10.8642L18 16.3006L8.60265 10.8642L17.3182 5.884C17.4694 5.7976 17.6315 5.74225 17.7975 5.7166C18.0918 5.6707 18.3982 5.72065 18.6804 5.884L27.3974 10.8642ZM17.3601 32.6437C17.5505 32.7463 17.7691 32.8043 18 32.8043C18.2336 32.8043 18.4536 32.7449 18.6453 32.641C19.1259 32.5627 19.5917 32.398 20.0183 32.155L29.4696 26.7536C30.3039 26.2717 30.9006 25.5427 31.2233 24.7097C31.4028 24.248 31.496 23.7553 31.5 23.2463V12.4464C31.5 11.8011 31.3475 11.1895 31.0761 10.6455C31.0464 10.5496 31.0059 10.4565 30.9532 10.366C30.8911 10.2594 30.8183 10.1649 30.7346 10.0825C30.6927 10.0245 30.6482 9.9664 30.6036 9.91105C30.2931 9.52495 29.9124 9.19825 29.4817 8.9458L20.0196 3.53905C19.1961 3.06385 18.2646 2.9113 17.3817 3.04765C16.8917 3.1246 16.4165 3.2893 15.9818 3.5377L6.5304 8.93905C6.01335 9.2374 5.58675 9.6316 5.26005 10.0866C5.17905 10.1676 5.10615 10.2621 5.0454 10.366C4.99275 10.4578 4.9509 10.5523 4.9212 10.6495C4.8672 10.7575 4.8186 10.8696 4.7754 10.9816C4.5972 11.4447 4.50405 11.9374 4.5 12.4369V23.2463C4.50135 24.2048 4.8348 25.0864 5.3964 25.7816C5.7069 26.1677 6.0876 26.4944 6.51825 26.7469L15.9804 32.1536C16.4178 32.4061 16.8849 32.5681 17.3601 32.6423V32.6437ZM16.65 18.6388V29.4266L7.88175 24.4168C7.7319 24.329 7.6023 24.217 7.497 24.086C7.30935 23.8538 7.2 23.5649 7.2 23.2463V13.1727L16.65 18.6388ZM19.35 29.4266V18.6388L28.8 13.1727V23.2463C28.7987 23.4097 28.7663 23.5784 28.7055 23.735C28.5975 24.0131 28.4018 24.2534 28.1304 24.41L19.35 29.4266Z" fill="#3462CD"/>
</svg>
