<svg width="36" height="36" viewBox="0 0 36 36" fill="none" xmlns="http://www.w3.org/2000/svg">
<path d="M11.25 4.35V5.7H8.55C7.4322 5.7 6.417 6.15495 5.68665 6.88665C4.9563 7.61835 4.5 8.6322 4.5 9.75V28.65C4.5 29.7678 4.95495 30.783 5.68665 31.5133C6.41835 32.2437 7.4322 32.7 8.55 32.7H27.45C28.5678 32.7 29.583 32.245 30.3134 31.5133C31.0437 30.7816 31.5 29.7678 31.5 28.65V9.75C31.5 8.6322 31.0451 7.617 30.3134 6.88665C29.5817 6.1563 28.5678 5.7 27.45 5.7H24.75V4.35C24.75 3.6048 24.1452 3 23.4 3C22.6548 3 22.05 3.6048 22.05 4.35V5.7H13.95V4.35C13.95 3.6048 13.3452 3 12.6 3C11.8548 3 11.25 3.6048 11.25 4.35ZM28.8 13.8H7.2V9.75C7.2 9.3774 7.34985 9.04125 7.59555 8.79555C7.84125 8.54985 8.1774 8.4 8.55 8.4H11.25V9.75C11.25 10.4952 11.8548 11.1 12.6 11.1C13.3452 11.1 13.95 10.4952 13.95 9.75V8.4H22.05V9.75C22.05 10.4952 22.6548 11.1 23.4 11.1C24.1452 11.1 24.75 10.4952 24.75 9.75V8.4H27.45C27.8226 8.4 28.1588 8.54985 28.4045 8.79555C28.6502 9.04125 28.8 9.3774 28.8 9.75V13.8ZM7.2 16.5H28.8V28.65C28.8 29.0226 28.6502 29.3587 28.4045 29.6044C28.1588 29.8501 27.8226 30 27.45 30H8.55C8.1774 30 7.84125 29.8501 7.59555 29.6044C7.34985 29.3587 7.2 29.0226 7.2 28.65V16.5Z" fill="#3462CD"/>
</svg>
