<svg width="17" height="13" viewBox="0 0 17 13" fill="none" xmlns="http://www.w3.org/2000/svg">
<path d="M1.57944 11.2303L14.4241 11.2314L14.425 1.61652L1.58025 1.61544L1.57944 11.2303ZM0.00354004 0L16.0035 0.00135066L16.0025 12.8461L0.00245574 12.8447L0.00354004 0ZM12.0215 8.03907L12.0218 4.80927L11.1957 4.8092L11.1954 8.039L12.0215 8.03907ZM12.8103 3.23169C13.0357 3.23171 13.2235 3.30677 13.3736 3.45688C13.5237 3.607 13.5987 3.79476 13.5987 4.02018L13.5983 8.82763C13.5982 9.05304 13.5232 9.2408 13.3731 9.39088C13.223 9.54097 13.0352 9.616 12.8098 9.61598L10.4061 9.61578C10.1806 9.61576 9.99289 9.5407 9.8428 9.39058C9.69271 9.24047 9.61768 9.05271 9.6177 8.82729L9.6181 4.01984C9.61812 3.79443 9.69319 3.60667 9.8433 3.45659C9.99341 3.3065 10.1812 3.23147 10.4066 3.23149L12.8103 3.23169ZM7.21404 8.03867L7.21431 4.80886L6.38823 4.80879L6.38796 8.0386L7.21404 8.03867ZM8.00287 3.23128C8.22828 3.2313 8.41603 3.30637 8.56612 3.45648C8.71621 3.60659 8.79124 3.79436 8.79122 4.01977L8.79082 8.82722C8.7908 9.05264 8.71573 9.24039 8.56562 9.39048C8.41551 9.54056 8.22774 9.6156 8.00233 9.61558L5.5986 9.61538C5.37319 9.61536 5.18543 9.54029 5.03535 9.39018C4.88526 9.24007 4.81023 9.0523 4.81025 8.82689L4.81065 4.01943C4.81067 3.79402 4.88574 3.60627 5.03585 3.45618C5.18596 3.30609 5.37372 3.23106 5.59914 3.23108L8.00287 3.23128ZM2.40699 3.23081L3.98464 3.23094L3.9841 9.61604L2.40645 9.61591L2.40699 3.23081Z" fill="#212121"/>
</svg>
