<svg width="14" height="16" viewBox="0 0 14 16" fill="none" xmlns="http://www.w3.org/2000/svg">
<path d="M11.8999 2.801L2.0999 2.80017L3.15002 1.40026L10.85 1.40091L11.8999 2.801ZM13.8557 3.07557L11.7601 0.280992C11.6229 0.098281 11.4143 0.00166354 11.2001 0.00094546L2.80014 0.000236366C2.57194 0.000217102 2.36893 0.1094 2.24011 0.280189L0.144079 3.07441C0.113976 3.11361 0.087372 3.1563 0.0663681 3.2018C0.0208601 3.2977 -0.000848534 3.3999 -0.000156985 3.5L-0.000984261 13.3C-0.00103319 13.8796 0.234822 14.406 0.61419 14.7847C0.993557 15.1635 1.51924 15.4001 2.09884 15.4002L11.8988 15.401C12.4784 15.401 13.0048 15.1652 13.3836 14.7858C13.7623 14.4064 13.999 13.8808 13.999 13.3012L13.9998 3.50118C13.9998 3.34788 13.9502 3.20577 13.8676 3.09167C13.8648 3.08817 13.8627 3.08467 13.8599 3.08117L13.8557 3.07557ZM1.39978 4.20011L12.5998 4.20106L12.599 13.301C12.599 13.4942 12.5213 13.6685 12.3939 13.7959C12.2665 13.9233 12.0921 14.001 11.8989 14.001L2.09895 14.0002C1.90575 14.0001 1.73146 13.9224 1.60407 13.795C1.47668 13.6676 1.399 13.4933 1.39901 13.3001L1.39978 4.20011ZM9.0996 6.30076C9.09955 6.88106 8.865 7.40464 8.48417 7.78541C8.10334 8.16617 7.57972 8.40063 6.99942 8.40058C6.41912 8.40053 5.89554 8.16599 5.51478 7.78516C5.13401 7.40432 4.89955 6.8807 4.8996 6.30041C4.89963 5.91401 4.58606 5.60038 4.19966 5.60035C3.81326 5.60031 3.49964 5.91389 3.4996 6.30029C3.49952 7.26629 3.89215 8.14272 4.52419 8.77557C5.15624 9.40842 6.0333 9.8005 6.9993 9.80058C7.9653 9.80066 8.84174 9.40803 9.47459 8.77599C10.1074 8.14394 10.4995 7.26688 10.4996 6.30088C10.4996 5.91448 10.1861 5.60085 9.79966 5.60082C9.41326 5.60079 9.09963 5.91436 9.0996 6.30076Z" fill="#212121"/>
</svg>
