<svg width="15" height="18" viewBox="0 0 15 18" fill="none" xmlns="http://www.w3.org/2000/svg">
<path d="M12.6016 0.00106364L5.40159 0.000455847L0.00113107 5.4L0.000219374 16.2C0.000135802 17.19 0.810067 18.0001 1.80007 18.0002L12.6001 18.0011C13.5901 18.0011 14.4001 17.1912 14.4002 16.2012L14.4014 1.80122C14.4015 0.811216 13.5916 0.00114721 12.6016 0.00106364ZM12.6014 1.80106L12.6002 16.2011L1.80022 16.2002L1.80107 6.14715L6.14843 1.80052L12.6014 1.80106ZM2.70045 13.5002L4.50045 13.5004L4.50029 15.3004L2.7003 15.3002L2.70045 13.5002ZM9.90045 13.5008L11.7004 13.501L11.7003 15.301L9.90029 15.3008L9.90045 13.5008ZM2.7009 8.10023L4.5009 8.10038L4.5006 11.7004L2.7006 11.7002L2.7009 8.10023ZM6.3006 11.7005L8.1006 11.7007L8.10029 15.3007L6.30029 15.3005L6.3006 11.7005ZM6.3009 8.10053L8.1009 8.10068L8.10075 9.90068L6.30075 9.90053L6.3009 8.10053ZM9.9009 8.10084L11.7009 8.10099L11.7006 11.701L9.9006 11.7008L9.9009 8.10084Z" fill="#212121"/>
</svg>
