<svg width="130" height="130" viewBox="0 0 130 130" fill="none" xmlns="http://www.w3.org/2000/svg">
<path d="M12.7935 71.3674C12.7935 85.1587 18.272 98.3851 28.0239 108.137C37.7758 117.889 51.0022 123.367 64.7935 123.367C78.5847 123.367 91.8111 117.889 101.563 108.137C111.315 98.3851 116.793 85.1587 116.793 71.3674C116.793 57.5762 111.315 44.3498 101.563 34.5979C91.8111 24.846 78.5847 19.3674 64.7935 19.3674C51.0022 19.3674 37.7758 24.846 28.0239 34.5979C18.272 44.3498 12.7935 57.5762 12.7935 71.3674Z" fill="white"/>
<path d="M73.5049 6.70282V13.4693C73.5049 13.7451 73.3954 14.0097 73.2003 14.2047C73.0053 14.3997 72.7407 14.5093 72.4649 14.5093H54.9682C54.6924 14.5093 54.4279 14.3997 54.2328 14.2047C54.0378 14.0097 53.9282 13.7451 53.9282 13.4693V6.70282" fill="white"/>
<path d="M73.5049 6.70282V13.4693C73.5049 13.7451 73.3954 14.0097 73.2003 14.2047C73.0053 14.3997 72.7407 14.5093 72.4649 14.5093H54.9682C54.6924 14.5093 54.4279 14.3997 54.2328 14.2047C54.0378 14.0097 53.9282 13.7451 53.9282 13.4693V6.70282" stroke="#173165" stroke-width="1.5" stroke-linecap="round" stroke-linejoin="round"/>
<path d="M98.6286 60.6736H30.3461C29.6565 60.6736 28.9952 60.9475 28.5076 61.4351C28.02 61.9227 27.7461 62.584 27.7461 63.2736V107.324H101.229V63.2736C101.229 62.584 100.955 61.9227 100.467 61.4351C99.9795 60.9475 99.3181 60.6736 98.6286 60.6736Z" fill="white" stroke="#173165" stroke-width="1.5" stroke-linecap="round" stroke-linejoin="round"/>
<path d="M96.0416 65.8606H33.0059L32.9331 107.324H96.0416V65.8606Z" fill="#3462CD"/>
<path d="M96.0416 65.8606H33.0059L32.9331 107.324H96.0416V65.8606Z" stroke="#173165" stroke-width="1.5" stroke-linecap="round" stroke-linejoin="round"/>
<path opacity="0.16" d="M24.7212 117.698C24.7212 118.039 25.7945 118.376 27.8799 118.691C29.9653 119.005 33.0218 119.291 36.8751 119.532C40.7283 119.773 45.3028 119.964 50.3374 120.094C55.3719 120.225 60.7679 120.292 66.2172 120.292C71.6665 120.292 77.0625 120.225 82.097 120.094C87.1315 119.964 91.706 119.773 95.5593 119.532C99.4126 119.291 102.469 119.005 104.554 118.691C106.64 118.376 107.713 118.039 107.713 117.698C107.713 117.358 106.64 117.02 104.554 116.706C102.469 116.391 99.4126 116.105 95.5593 115.864C91.706 115.623 87.1315 115.432 82.097 115.302C77.0625 115.172 71.6665 115.105 66.2172 115.105C60.7679 115.105 55.3719 115.172 50.3374 115.302C45.3028 115.432 40.7283 115.623 36.8751 115.864C33.0218 116.105 29.9653 116.391 27.8799 116.706C25.7945 117.02 24.7212 117.358 24.7212 117.698Z" fill="#173165"/>
<path d="M107.713 112.511H21.2632V108.624C21.2632 108.279 21.4001 107.949 21.6439 107.705C21.8877 107.461 22.2184 107.324 22.5632 107.324H106.413C106.758 107.324 107.089 107.461 107.332 107.705C107.576 107.949 107.713 108.279 107.713 108.624V112.511Z" fill="white" stroke="#173165" stroke-width="1.5" stroke-linecap="round" stroke-linejoin="round"/>
<path d="M107.713 112.512C99.6838 114.806 91.374 115.969 83.0236 115.969H45.9528C37.6023 115.969 29.2926 114.806 21.2632 112.512H107.713Z" fill="white" stroke="#173165" stroke-width="1.5" stroke-linecap="round" stroke-linejoin="round"/>
<path d="M79.0183 43.03C79.0166 41.5227 78.4171 40.0776 77.3514 39.0116C76.2857 37.9457 74.8407 37.3459 73.3334 37.3438H54.7785C53.2709 37.3455 51.8256 37.9452 50.7596 39.0112C49.6936 40.0772 49.094 41.5225 49.0923 43.03V57.3976H54.0401V43.03C54.0448 42.6632 54.1926 42.3128 54.452 42.0535C54.7113 41.7941 55.0617 41.6463 55.4285 41.6416H72.6834C73.05 41.6463 73.4003 41.7942 73.6594 42.0536C73.9186 42.313 74.0661 42.6634 74.0705 43.03V57.3976H79.0183V43.03Z" fill="#3462CD" stroke="#3462CD" stroke-width="1.5" stroke-linecap="round" stroke-linejoin="round"/>
<path d="M86.9702 103.373H42.0032C41.7849 103.374 41.5689 103.329 41.3682 103.243C41.1675 103.157 40.9863 103.032 40.8357 102.874C40.6851 102.716 40.5682 102.529 40.492 102.324C40.4158 102.119 40.3819 101.901 40.3925 101.683L42.7988 53.651C42.8195 53.3235 42.9632 53.016 43.2012 52.79C43.4392 52.5641 43.7538 52.4365 44.0819 52.4329H85.496C85.828 52.4366 86.146 52.5671 86.3848 52.7977C86.6236 53.0283 86.7652 53.3415 86.7804 53.6731L88.5835 101.704C88.5912 101.921 88.5551 102.137 88.4775 102.339C88.3999 102.541 88.2822 102.726 88.1316 102.882C87.981 103.038 87.8006 103.161 87.601 103.246C87.4015 103.33 87.1869 103.374 86.9702 103.373Z" fill="white"/>
<path d="M86.9702 103.373H42.0032C41.7849 103.374 41.5689 103.329 41.3682 103.243C41.1675 103.157 40.9863 103.032 40.8357 102.874C40.6851 102.716 40.5682 102.529 40.492 102.324C40.4158 102.119 40.3819 101.901 40.3925 101.683L42.7988 53.651C42.8195 53.3235 42.9632 53.016 43.2012 52.79C43.4392 52.5641 43.7538 52.4365 44.0819 52.4329H85.496C85.828 52.4366 86.146 52.5671 86.3848 52.7977C86.6236 53.0283 86.7652 53.3415 86.7804 53.6731L88.5835 101.704C88.5912 101.921 88.5551 102.137 88.4775 102.339C88.3999 102.541 88.2822 102.726 88.1316 102.882C87.981 103.038 87.8006 103.161 87.601 103.246C87.4015 103.33 87.1869 103.374 86.9702 103.373V103.373Z" stroke="#173165" stroke-width="1.5" stroke-linecap="round" stroke-linejoin="round"/>
<path d="M55.1943 14.5067V17.2575C55.1943 17.5333 55.3039 17.7979 55.4989 17.9929C55.694 18.1879 55.9585 18.2975 56.2343 18.2975H71.2051C71.481 18.2975 71.7455 18.1879 71.9405 17.9929C72.1356 17.7979 72.2451 17.5333 72.2451 17.2575V14.5067H55.1943Z" fill="white" stroke="#173165" stroke-width="1.5" stroke-linecap="round" stroke-linejoin="round"/>
<path d="M74.1275 42.7102V40.8629H76.1607C77.0149 40.862 77.8605 41.0345 78.6463 41.3699C78.6686 41.1883 78.6799 41.0055 78.68 40.8226V34.9804C78.68 23.4871 70.9724 25.5801 70.9724 18.3014H56.4488V21.775C56.4488 25.4943 53.9229 26.6344 53.9229 33.1409V43.5591C53.9229 44.229 54.189 44.8715 54.6627 45.3452C55.1364 45.8189 55.7788 46.085 56.4488 46.085C57.1187 46.085 57.7611 45.8189 58.2348 45.3452C58.7085 44.8715 58.9747 44.229 58.9747 43.5591V44.8227C58.9747 45.4926 59.2408 46.1351 59.7145 46.6088C60.1882 47.0825 60.8306 47.3486 61.5005 47.3486C62.1705 47.3486 62.8129 47.0825 63.2866 46.6088C63.7603 46.1351 64.0265 45.4926 64.0265 44.8227V46.085C64.0265 46.7549 64.2926 47.3974 64.7663 47.8711C65.24 48.3448 65.8824 48.6109 66.5524 48.6109C67.2223 48.6109 67.8647 48.3448 68.3384 47.8711C68.8121 47.3974 69.0783 46.7549 69.0783 46.085V46.8741C69.0706 47.2105 69.1303 47.5451 69.2538 47.8582C69.3772 48.1712 69.562 48.4565 69.7973 48.6971C70.0325 48.9377 70.3135 49.129 70.6237 49.2595C70.9338 49.39 71.267 49.4573 71.6035 49.4573C71.94 49.4573 72.2732 49.39 72.5833 49.2595C72.8935 49.129 73.1745 48.9377 73.4097 48.6971C73.645 48.4565 73.8298 48.1712 73.9532 47.8582C74.0767 47.5451 74.1364 47.2105 74.1287 46.8741V42.7141L74.1275 42.7102Z" fill="white"/>
<path d="M74.1275 42.7102V40.8629H76.1606C77.0149 40.862 77.8605 41.0345 78.6463 41.3699C78.6686 41.1883 78.6799 41.0055 78.68 40.8226V34.9804C78.68 23.4871 70.9724 25.5801 70.9724 18.3014H56.4488V21.775C56.4488 25.4943 53.9229 26.6344 53.9229 33.1409V43.5591C53.9229 44.229 54.189 44.8715 54.6627 45.3452C55.1364 45.8189 55.7788 46.085 56.4488 46.085C57.1187 46.085 57.7611 45.8189 58.2348 45.3452C58.7085 44.8715 58.9747 44.229 58.9747 43.5591V44.8227C58.9747 45.4926 59.2408 46.1351 59.7145 46.6088C60.1882 47.0825 60.8306 47.3486 61.5005 47.3486C62.1705 47.3486 62.8129 47.0825 63.2866 46.6088C63.7603 46.1351 64.0265 45.4926 64.0265 44.8227V46.085C64.0265 46.7549 64.2926 47.3974 64.7663 47.8711C65.24 48.3448 65.8824 48.6109 66.5524 48.6109C67.2223 48.6109 67.8647 48.3448 68.3384 47.8711C68.8121 47.3974 69.0783 46.7549 69.0783 46.085V46.8741C69.0706 47.2105 69.1303 47.5451 69.2538 47.8582C69.3772 48.1712 69.562 48.4565 69.7973 48.6971C70.0325 48.9377 70.3135 49.129 70.6237 49.2595C70.9338 49.39 71.267 49.4573 71.6035 49.4573C71.94 49.4573 72.2732 49.39 72.5833 49.2595C72.8935 49.129 73.1745 48.9377 73.4097 48.6971C73.645 48.4565 73.8298 48.1712 73.9532 47.8582C74.0767 47.5451 74.1364 47.2105 74.1287 46.8741V42.7141L74.1275 42.7102Z" stroke="#173165" stroke-width="1.5" stroke-linecap="round" stroke-linejoin="round"/>
<path d="M74.139 35.3405L74.1338 43.6618" stroke="#173165" stroke-width="1.5" stroke-linecap="round" stroke-linejoin="round"/>
<path d="M64.0264 42.0862V44.8227V42.0862Z" fill="#FFCEBF"/>
<path d="M64.0264 42.0862V44.8227" stroke="#173165" stroke-width="1.5" stroke-linecap="round" stroke-linejoin="round"/>
<path d="M69.0781 42.2968V46.085V42.2968Z" fill="#FFCEBF"/>
<path d="M69.0781 42.2968V46.085" stroke="#173165" stroke-width="1.5" stroke-linecap="round" stroke-linejoin="round"/>
<path d="M58.9746 42.0862V43.5591V42.0862Z" fill="#FFCEBF"/>
<path d="M58.9746 42.0862V43.5591" stroke="#173165" stroke-width="1.5" stroke-linecap="round" stroke-linejoin="round"/>
<path d="M53.438 73.3174C53.438 73.8346 53.6434 74.3306 54.0091 74.6963C54.3748 75.062 54.8708 75.2674 55.388 75.2674C55.9052 75.2674 56.4012 75.062 56.7668 74.6963C57.1325 74.3306 57.338 73.8346 57.338 73.3174C57.338 72.8003 57.1325 72.3043 56.7668 71.9386C56.4012 71.5729 55.9052 71.3674 55.388 71.3674C54.8708 71.3674 54.3748 71.5729 54.0091 71.9386C53.6434 72.3043 53.438 72.8003 53.438 73.3174Z" fill="#173165"/>
<path d="M71.6382 73.3174C71.6382 73.8346 71.8436 74.3306 72.2093 74.6963C72.575 75.062 73.071 75.2674 73.5882 75.2674C74.1054 75.2674 74.6013 75.062 74.967 74.6963C75.3327 74.3306 75.5382 73.8346 75.5382 73.3174C75.5382 72.8003 75.3327 72.3043 74.967 71.9386C74.6013 71.5729 74.1054 71.3674 73.5882 71.3674C73.071 71.3674 72.575 71.5729 72.2093 71.9386C71.8436 72.3043 71.6382 72.8003 71.6382 73.3174Z" fill="#173165"/>
<path d="M56.0483 81.0914C60.7101 87.8423 68.2683 87.8423 72.9262 81.0914H56.0483Z" fill="white" stroke="#173165" stroke-width="1.5" stroke-linecap="round" stroke-linejoin="round"/>
<path d="M74.1403 52.4303H79.0179V43.03C79.0142 41.6651 78.5189 40.3471 77.6226 39.3176C76.7263 38.2881 75.4892 37.616 74.1377 37.4244V42.9988C74.1377 43.0092 74.1377 43.0183 74.1377 43.03L74.1403 52.4303Z" fill="#3462CD" stroke="#3462CD" stroke-width="1.5" stroke-linecap="round" stroke-linejoin="round"/>
</svg>
