<svg width="130" height="130" viewBox="0 0 130 130" fill="none" xmlns="http://www.w3.org/2000/svg">
<path d="M68.471 96.07C68.1135 96.07 67.99 95.602 68.2955 95.42C68.5685 95.2575 68.7635 95.134 68.991 94.9975L69.6345 94.588C70.057 94.315 70.4795 94.0355 70.889 93.7495C71.7145 93.184 72.527 92.6055 73.333 92.014C74.9385 90.831 76.492 89.596 78.0065 88.3155C81.029 85.7415 83.9085 82.979 86.528 79.963C89.1345 76.947 91.52 73.7035 93.5415 70.2325C95.5565 66.7615 97.2465 63.0565 98.332 59.163C99.437 55.276 99.9895 51.2265 99.918 47.1965C99.8985 46.189 99.8465 45.188 99.749 44.187C99.645 43.186 99.5085 42.198 99.333 41.21C98.982 39.2405 98.4945 37.3035 97.8835 35.4185C97.266 33.5335 96.5445 31.694 95.693 29.9195C94.848 28.145 93.8925 26.429 92.8655 24.7715C90.8245 21.4435 88.4065 18.3885 85.8325 15.522H85.826C85.761 15.444 85.657 15.4375 85.579 15.496C85.501 15.5545 85.488 15.6715 85.553 15.7495C87.9385 18.7525 90.1225 21.918 91.975 25.272C93.821 28.626 95.3485 32.162 96.382 35.8475C97.4155 39.5265 97.955 43.355 97.8965 47.177C97.8445 50.999 97.201 54.8015 96.044 58.448C94.887 62.088 93.2295 65.572 91.2275 68.8285C89.2255 72.0915 86.879 75.1335 84.305 77.9675C81.731 80.8015 78.936 83.434 75.9785 85.8715C74.4965 87.087 72.982 88.257 71.422 89.3685C69.9725 90.402 68.4905 91.403 66.9695 92.3065C66.859 92.3715 66.716 92.3715 66.6055 92.3065L49.7445 81.796L41.145 76.4335L33.735 71.838C33.488 71.6885 33.527 71.318 33.8 71.2205C37.0435 70.0115 40.2025 68.6335 43.316 67.145C46.852 65.442 50.3165 63.583 53.664 61.542C57.0115 59.4945 60.255 57.265 63.323 54.808C66.3845 52.351 69.277 49.66 71.851 46.683C74.4185 43.706 76.6805 40.4365 78.351 36.8615C80.0345 33.2995 81.107 29.432 81.3995 25.493C81.432 24.999 81.471 24.5115 81.4775 24.0175C81.4905 23.5235 81.51 23.0295 81.4775 22.5355L81.445 21.7945L81.3735 21.0535C81.3345 20.5595 81.25 20.072 81.1785 19.5845C81.0095 18.6095 80.7885 17.641 80.457 16.705C80.145 15.7625 79.742 14.846 79.2415 13.988C78.2535 12.2655 76.8755 10.751 75.2245 9.63953C74.399 9.08053 73.502 8.64503 72.592 8.24853C71.63 7.83903 69.9985 7.26053 69.6345 7.32553H69.5955C69.2315 7.32553 68.978 7.61803 68.978 7.98203L69.069 34.71C69.069 35.074 69.3615 35.36 69.7255 35.36C70.0895 35.36 70.382 35.0675 70.3755 34.7035L70.291 9.19103C70.447 9.23653 70.603 9.27553 70.7525 9.32753C71.1685 9.45753 71.578 9.62003 71.9745 9.79553C72.774 10.153 73.528 10.595 74.217 11.115C75.595 12.1485 76.7 13.481 77.4995 14.9825C77.9025 15.7365 78.221 16.536 78.468 17.368C78.6045 17.7775 78.689 18.213 78.793 18.6355C78.845 18.85 78.871 19.071 78.91 19.2855C78.949 19.5 78.9945 19.7145 79.014 19.942C79.066 20.384 79.1245 20.8195 79.144 21.2745L79.183 21.944V22.607C79.209 23.049 79.17 23.4975 79.144 23.946C79.131 24.3945 79.0725 24.8495 79.027 25.298C78.6175 28.912 77.5645 32.4285 75.92 35.6915C74.2885 38.9545 72.098 41.964 69.602 44.7135C64.6165 50.2385 58.4675 54.795 51.9285 58.656C48.6395 60.567 45.2855 62.387 41.8275 64.012C40.105 64.831 38.3565 65.6045 36.6015 66.339C35.724 66.703 34.84 67.0605 33.956 67.405L32.63 67.9055L31.9735 68.146L31.343 68.367L25.714 70.3235C25.4345 70.421 25.3955 70.7915 25.6425 70.9475L30.6735 74.0935C33.54 75.881 36.387 77.701 39.2665 79.469L47.8985 84.7795L56.5305 90.09C59.41 91.858 62.283 93.639 65.182 95.368L65.286 95.4265C65.5915 95.6085 65.4615 96.0765 65.1105 96.0765H31.486C31.4145 96.0765 31.343 96.1025 31.2845 96.1415L24.479 101.043C24.206 101.238 24.3425 101.673 24.6805 101.673H93.132C93.47 101.673 93.613 102.109 93.3335 102.304C86.7945 106.984 78.8515 112.665 73.7945 116.253L71.0905 118.17C70.811 118.365 70.954 118.801 71.292 118.801H79.82C79.8915 118.801 79.963 118.775 80.0215 118.736L110.773 96.707C111.046 96.512 110.91 96.0765 110.572 96.0765H68.471V96.07Z" fill="white"/>
</svg>
