<svg width="91" height="39" viewBox="0 0 91 39" fill="none" xmlns="http://www.w3.org/2000/svg">
<path d="M0.486602 28.11L2.1666 25.212C2.7266 25.576 3.5106 25.926 4.5186 26.262C5.5266 26.598 6.7026 26.766 8.0466 26.766C9.4466 26.766 10.5526 26.626 11.3646 26.346C12.2046 26.066 12.8066 25.66 13.1706 25.128C13.5626 24.568 13.7586 23.924 13.7586 23.196C13.7586 22.636 13.6326 21.95 13.3806 21.138C13.1566 20.298 12.6526 19.178 11.8686 17.778C11.0846 16.35 9.8806 14.488 8.2566 12.192L11.1546 10.302C12.6386 12.346 13.8146 14.194 14.6826 15.846C15.5786 17.498 16.2086 18.954 16.5726 20.214C16.9646 21.446 17.1606 22.51 17.1606 23.406C17.1606 24.526 16.8806 25.618 16.3206 26.682C15.7606 27.718 14.8226 28.572 13.5066 29.244C12.1906 29.916 10.3706 30.252 8.0466 30.252C7.0386 30.252 6.0586 30.168 5.1066 30C4.1826 29.832 3.3286 29.594 2.5446 29.286C1.7606 28.95 1.0746 28.558 0.486602 28.11ZM31.2542 30.21C29.0142 30.21 27.2922 29.958 26.0882 29.454C24.9122 28.95 24.1002 28.166 23.6522 27.102C23.2042 26.038 22.9522 24.666 22.8962 22.986L22.0562 0.0119981H25.5002L26.3402 21.642C26.3962 23.014 26.5222 24.078 26.7182 24.834C26.9422 25.562 27.4182 26.066 28.1462 26.346C28.9022 26.626 30.0782 26.766 31.6742 26.766C32.2622 26.766 32.6822 26.934 32.9342 27.27C33.2142 27.578 33.3542 27.956 33.3542 28.404C33.3542 28.852 33.1582 29.272 32.7662 29.664C32.3742 30.028 31.8702 30.21 31.2542 30.21ZM31.2549 30.21L31.6749 26.766C32.8509 26.766 33.7749 26.668 34.4469 26.472C35.1189 26.248 35.6229 25.842 35.9589 25.254C36.3229 24.638 36.6309 23.756 36.8829 22.608C37.1349 21.46 37.4429 19.962 37.8069 18.114L41.0829 18.744C40.9709 19.248 40.8449 19.808 40.7049 20.424C40.5649 21.04 40.4389 21.656 40.3269 22.272C40.2429 22.86 40.2009 23.378 40.2009 23.826C40.2009 24.386 40.3269 24.89 40.5789 25.338C40.8309 25.786 41.3769 26.136 42.2169 26.388C43.0569 26.64 44.3449 26.766 46.0809 26.766C46.6689 26.766 47.0889 26.934 47.3409 27.27C47.6209 27.578 47.7609 27.956 47.7609 28.404C47.7609 28.852 47.5649 29.272 47.1729 29.664C46.7809 30.028 46.2769 30.21 45.6609 30.21C43.8409 30.21 42.4129 30.056 41.3769 29.748C40.3409 29.412 39.5849 28.922 39.1089 28.278C38.6329 27.606 38.3109 26.794 38.1429 25.842L39.4029 25.926C38.9549 26.822 38.4649 27.55 37.9329 28.11C37.4289 28.67 36.8689 29.104 36.2529 29.412C35.6369 29.72 34.9229 29.93 34.1109 30.042C33.2989 30.154 32.3469 30.21 31.2549 30.21ZM38.3949 38.022C37.8069 38.022 37.3029 37.812 36.8829 37.392C36.4909 37 36.2949 36.524 36.2949 35.964C36.2949 35.404 36.4909 34.914 36.8829 34.494C37.3029 34.074 37.8069 33.864 38.3949 33.864C38.9549 33.864 39.4309 34.074 39.8229 34.494C40.2429 34.914 40.4529 35.404 40.4529 35.964C40.4529 36.524 40.2429 37 39.8229 37.392C39.4309 37.812 38.9549 38.022 38.3949 38.022ZM45.6514 30.21L46.0714 26.766C47.2474 26.766 48.1714 26.668 48.8434 26.472C49.5154 26.248 50.0194 25.842 50.3554 25.254C50.7194 24.638 51.0274 23.756 51.2794 22.608C51.5314 21.46 51.8394 19.962 52.2034 18.114L55.4794 18.744C55.3674 19.248 55.2414 19.808 55.1014 20.424C54.9614 21.04 54.8354 21.656 54.7234 22.272C54.6394 22.86 54.5974 23.378 54.5974 23.826C54.5974 24.386 54.7234 24.89 54.9754 25.338C55.2274 25.786 55.7734 26.136 56.6134 26.388C57.4534 26.64 58.7414 26.766 60.4774 26.766C61.0654 26.766 61.4854 26.934 61.7374 27.27C62.0174 27.578 62.1574 27.956 62.1574 28.404C62.1574 28.852 61.9614 29.272 61.5694 29.664C61.1774 30.028 60.6734 30.21 60.0574 30.21C58.2374 30.21 56.8094 30.056 55.7734 29.748C54.7374 29.412 53.9814 28.922 53.5054 28.278C53.0294 27.606 52.7074 26.794 52.5394 25.842L53.7994 25.926C53.3514 26.822 52.8614 27.55 52.3294 28.11C51.8254 28.67 51.2654 29.104 50.6494 29.412C50.0334 29.72 49.3194 29.93 48.5074 30.042C47.6954 30.154 46.7434 30.21 45.6514 30.21ZM52.2034 13.788C51.6154 13.788 51.1114 13.592 50.6914 13.2C50.2994 12.78 50.1034 12.29 50.1034 11.73C50.1034 11.17 50.2994 10.68 50.6914 10.26C51.1114 9.84 51.6154 9.63 52.2034 9.63C52.7634 9.63 53.2394 9.84 53.6314 10.26C54.0514 10.68 54.2614 11.17 54.2614 11.73C54.2614 12.29 54.0514 12.78 53.6314 13.2C53.2394 13.592 52.7634 13.788 52.2034 13.788ZM60.0479 30.21L60.4679 26.766C61.3639 26.766 62.0919 26.71 62.6519 26.598C63.2119 26.458 63.6739 26.136 64.0379 25.632C64.4299 25.1 64.7939 24.274 65.1299 23.154C65.4659 22.034 65.8579 20.466 66.3059 18.45L69.4559 19.332C69.3439 19.808 69.2179 20.354 69.0779 20.97C68.9379 21.558 68.8119 22.174 68.6999 22.818C68.5879 23.434 68.5319 24.008 68.5319 24.54C68.5319 25.24 68.7979 25.786 69.3299 26.178C69.8619 26.57 70.8279 26.766 72.2279 26.766C73.0679 26.766 73.7539 26.696 74.2859 26.556C74.8179 26.416 75.2519 26.08 75.5879 25.548C75.9519 25.016 76.2739 24.162 76.5539 22.986C76.8339 21.81 77.1279 20.2 77.4359 18.156L80.6279 18.744C80.5439 19.248 80.4459 19.864 80.3339 20.592C80.2219 21.32 80.1099 22.048 79.9979 22.776C79.9139 23.476 79.8719 24.064 79.8719 24.54C79.8719 24.932 79.9559 25.31 80.1239 25.674C80.3199 26.01 80.6839 26.276 81.2159 26.472C81.7759 26.668 82.6019 26.766 83.6939 26.766C84.5059 26.766 85.2059 26.668 85.7939 26.472C86.4099 26.276 86.8719 25.912 87.1799 25.38C87.5159 24.848 87.6839 24.106 87.6839 23.154C87.6839 22.09 87.4319 20.76 86.9279 19.164C86.4519 17.54 85.9059 15.93 85.2899 14.334L88.6919 13.074C89.0559 13.97 89.3919 14.992 89.6999 16.14C90.0359 17.288 90.3159 18.422 90.5399 19.542C90.7639 20.662 90.8759 21.642 90.8759 22.482C90.8759 23.77 90.7079 24.904 90.3719 25.884C90.0359 26.864 89.5599 27.676 88.9439 28.32C88.3279 28.936 87.5719 29.412 86.6759 29.748C85.7799 30.056 84.7719 30.21 83.6519 30.21C82.3359 30.21 81.2579 30.056 80.4179 29.748C79.5779 29.44 78.9339 28.978 78.4859 28.362C78.0379 27.718 77.7439 26.906 77.6039 25.926H79.0319C78.4999 27.13 77.9399 28.04 77.3519 28.656C76.7639 29.272 76.0359 29.692 75.1679 29.916C74.2999 30.112 73.1519 30.21 71.7239 30.21C71.0239 30.21 70.2679 30.098 69.4559 29.874C68.6719 29.65 67.9859 29.216 67.3979 28.572C66.8099 27.9 66.4599 26.906 66.3479 25.59L67.6079 25.338C67.1319 26.766 66.5439 27.83 65.8439 28.53C65.1719 29.202 64.3599 29.65 63.4079 29.874C62.4559 30.098 61.3359 30.21 60.0479 30.21Z" fill="#3462CD"/>
</svg>
